<svg width="90" height="90" viewBox="0 0 90 90" fill="none" xmlns="http://www.w3.org/2000/svg">
<rect opacity="0.7" width="90" height="90" rx="20" fill="#F3DFD4"/>
<rect x="8" y="8" width="74" height="74" rx="15" fill="#E1AF93"/>
<path d="M60.4185 33.5842C60.6048 33.7699 60.7525 33.9906 60.8534 34.2336C60.9542 34.4766 61.0061 34.7371 61.0061 35.0002C61.0061 35.2632 60.9542 35.5237 60.8534 35.7667C60.7525 36.0097 60.6048 36.2304 60.4185 36.4162L42.4185 54.4162C42.2327 54.6024 42.012 54.7502 41.7691 54.851C41.5261 54.9518 41.2656 55.0037 41.0025 55.0037C40.7395 55.0037 40.479 54.9518 40.236 54.851C39.993 54.7502 39.7723 54.6024 39.5865 54.4162L31.5865 46.4162C31.211 46.0406 31 45.5313 31 45.0002C31 44.4691 31.211 43.9597 31.5865 43.5842C31.9621 43.2086 32.4714 42.9976 33.0025 42.9976C33.5336 42.9976 34.043 43.2086 34.4185 43.5842L41.0025 50.1722L57.5865 33.5842C57.7723 33.3979 57.993 33.2501 58.236 33.1493C58.479 33.0485 58.7395 32.9966 59.0025 32.9966C59.2656 32.9966 59.5261 33.0485 59.7691 33.1493C60.012 33.2501 60.2327 33.3979 60.4185 33.5842Z" fill="white"/>
</svg>
